<?xml version="1.0" encoding="utf-8"?>
<!-- Generator: Adobe Illustrator 27.0.1, SVG Export Plug-In . SVG Version: 6.00 Build 0)  -->
<svg version="1.1" id="Слой_1" xmlns="http://www.w3.org/2000/svg" xmlns:xlink="http://www.w3.org/1999/xlink" x="0px" y="0px"
	 viewBox="0 0 500 500" style="enable-background:new 0 0 500 500;" xml:space="preserve">
<style type="text/css">
	.st0{clip-path:url(#SVGID_00000008130412489019720430000006027455867834926509_);}
	.st1{fill:#0010F7;}
	.st2{fill:#FFFFFF;}
</style>
<g>
	<g>
		<defs>
			<rect id="SVGID_1_" x="29.7" y="7.2" width="441.1" height="485.6"/>
		</defs>
		<clipPath id="SVGID_00000000929736172841025560000000314699159190194856_">
			<use xlink:href="#SVGID_1_"  style="overflow:visible;"/>
		</clipPath>
		<g style="clip-path:url(#SVGID_00000000929736172841025560000000314699159190194856_);">
			<path class="st1" d="M430.3,102.3L287.7,20.3c-23.3-13.2-52.6-13.2-75.9,0L69.1,102.3c-23.3,13.2-37.4,38.4-37.4,65.8v163.9
				c0,27.3,14.2,51.6,37.4,65.8l142.6,81.9c23.3,13.2,52.6,13.2,75.9,0l142.6-81.9c23.3-13.2,37.4-38.4,37.4-65.8V168
				C467.7,140.7,453.6,116.4,430.3,102.3z"/>
			<path class="st2" d="M409.1,192.3c-14.2-4-19.2-4-19.2-4c-2,0-11.1-2-23.3-2c-10.1-1-20.2-4-26.3-10.1
				c-7.1-6.1-19.2-16.2-24.3-19.2c0,0,0,0-1,0c-18.2-13.2-41.5-20.2-64.7-20.2c-27.3,0-52.6,10.1-72.8,25.3
				c-6.1,4-12.1,10.1-17.2,14.2c-7.1,6.1-17.2,8.1-27.3,10.1c-12.1,0-21.2,2-23.3,2c0,0-5.1,1-18.2,4c-6.1,1-6.1,9.1-1,11.1l0,0
				c8.1,4,16.2,10.1,26.3,25.3c12.1,18.2,14.2,29.3,21.2,46.5c12.1,49.6,57.7,87,111.3,87c51.6,0,96.1-34.4,110.3-80.9
				c10.1-20.2,11.1-32.4,24.3-52.6c10.1-15.2,17.2-21.2,26.3-25.3c1,0,1-1,2-1C415.1,200.4,414.1,194.3,409.1,192.3z M204.7,280.3
				c-15.2-4-25.3-18.2-25.3-18.2s16.2-12.1,32.4-8.1c15.2,4,24.3,22.3,24.3,22.3S220.9,284.4,204.7,280.3z M296.8,280.3
				c-15.2,4-30.3-3-30.3-3s8.1-18.2,24.3-22.3c15.2-4,32.4,8.1,32.4,8.1S311.9,276.3,296.8,280.3z"/>
		</g>
	</g>
</g>
</svg>
